# xmcd
#
# Track frame offsets: 
#        150
#        20077
#        39417
#
# Disc length: 862 seconds
#
# Revision: 1
# Processed by: cddbd v1.5.2PL0 Copyright (c) Steve Scherf et al.
# Submitted via: ExactAudioCopy v1.0b3
#
DISCID=1d035c03
DTITLE=Brown, Bobby - Rock wit ´cha[mcd]
DYEAR=1989
DGENRE=Soul
TTITLE0=Rock wit ´cha
TTITLE1=Seventeen[1986]
TTITLE2=Rock wit`cha[extended version]
EXTD=
EXTT0=
EXTT1=
EXTT2=
PLAYORDER=
